// this file was generated from Plinky .exs using vonred's exs2sfz.py. Trickster goddess incoming.

<group> key=36  
	<region> lovel=000 hivel=127 amp_velcurve_127=1 amp_veltrack=30  end=120831 sample=../KorgZ1/Plinky 1-SAMPLES/Plinky-36-127_0001.wav
<group> key=37  
	<region> lovel=000 hivel=127 amp_velcurve_127=1 amp_veltrack=30  end=118783 sample=../KorgZ1/Plinky 1-SAMPLES/Plinky-37-127_0001.wav
<group> key=38  
	<region> lovel=000 hivel=127 amp_velcurve_127=1 amp_veltrack=30  end=120831 sample=../KorgZ1/Plinky 1-SAMPLES/Plinky-38-127_0001.wav
<group> key=39  
	<region> lovel=000 hivel=127 amp_velcurve_127=1 amp_veltrack=30  end=119295 sample=../KorgZ1/Plinky 1-SAMPLES/Plinky-39-127.wav
<group> key=40  
	<region> lovel=000 hivel=127 amp_velcurve_127=1 amp_veltrack=30  end=119295 sample=../KorgZ1/Plinky 1-SAMPLES/Plinky-40-127.wav
<group> key=41  
	<region> lovel=000 hivel=127 amp_velcurve_127=1 amp_veltrack=30  end=120319 sample=../KorgZ1/Plinky 1-SAMPLES/Plinky-41-127.wav
<group> key=42  
	<region> lovel=000 hivel=127 amp_velcurve_127=1 amp_veltrack=30  end=118783 sample=../KorgZ1/Plinky 1-SAMPLES/Plinky-42-127.wav
<group> key=43  
	<region> lovel=000 hivel=127 amp_velcurve_127=1 amp_veltrack=30  end=122367 sample=../KorgZ1/Plinky 1-SAMPLES/Plinky-43-127.wav
<group> key=44  
	<region> lovel=000 hivel=127 amp_velcurve_127=1 amp_veltrack=30  end=119807 sample=../KorgZ1/Plinky 1-SAMPLES/Plinky-44-127.wav
<group> key=45  
	<region> lovel=000 hivel=127 amp_velcurve_127=1 amp_veltrack=30  end=119295 sample=../KorgZ1/Plinky 1-SAMPLES/Plinky-45-127.wav
<group> key=46  
	<region> lovel=000 hivel=127 amp_velcurve_127=1 amp_veltrack=30  end=120319 sample=../KorgZ1/Plinky 1-SAMPLES/Plinky-46-127.wav
<group> key=47  
	<region> lovel=000 hivel=127 amp_velcurve_127=1 amp_veltrack=30  end=120831 sample=../KorgZ1/Plinky 1-SAMPLES/Plinky-47-127.wav
<group> key=48  
	<region> lovel=000 hivel=127 amp_velcurve_127=1 amp_veltrack=30  end=119807 sample=../KorgZ1/Plinky 1-SAMPLES/Plinky-48-127.wav
<group> key=49  
	<region> lovel=000 hivel=127 amp_velcurve_127=1 amp_veltrack=30  end=118783 sample=../KorgZ1/Plinky 1-SAMPLES/Plinky-49-127.wav
<group> key=50  
	<region> lovel=000 hivel=127 amp_velcurve_127=1 amp_veltrack=30  end=118271 sample=../KorgZ1/Plinky 1-SAMPLES/Plinky-50-127.wav
<group> key=51  
	<region> lovel=000 hivel=127 amp_velcurve_127=1 amp_veltrack=30  end=119807 sample=../KorgZ1/Plinky 1-SAMPLES/Plinky-51-127.wav
<group> key=52  
	<region> lovel=000 hivel=127 amp_velcurve_127=1 amp_veltrack=30  end=120319 sample=../KorgZ1/Plinky 1-SAMPLES/Plinky-52-127.wav
<group> key=53  
	<region> lovel=000 hivel=127 amp_velcurve_127=1 amp_veltrack=30  end=119807 sample=../KorgZ1/Plinky 1-SAMPLES/Plinky-53-127.wav
<group> key=54  
	<region> lovel=000 hivel=127 amp_velcurve_127=1 amp_veltrack=30  end=119807 sample=../KorgZ1/Plinky 1-SAMPLES/Plinky-54-127.wav
<group> key=55  
	<region> lovel=000 hivel=127 amp_velcurve_127=1 amp_veltrack=30  end=120319 sample=../KorgZ1/Plinky 1-SAMPLES/Plinky-55-127.wav
<group> key=56  
	<region> lovel=000 hivel=127 amp_velcurve_127=1 amp_veltrack=30  end=120831 sample=../KorgZ1/Plinky 1-SAMPLES/Plinky-56-127.wav
<group> key=57  
	<region> lovel=000 hivel=127 amp_velcurve_127=1 amp_veltrack=30  end=121343 sample=../KorgZ1/Plinky 1-SAMPLES/Plinky-57-127.wav
<group> key=58  
	<region> lovel=000 hivel=127 amp_velcurve_127=1 amp_veltrack=30  end=122879 sample=../KorgZ1/Plinky 1-SAMPLES/Plinky-58-127.wav
<group> key=59  
	<region> lovel=000 hivel=127 amp_velcurve_127=1 amp_veltrack=30  end=119295 sample=../KorgZ1/Plinky 1-SAMPLES/Plinky-59-127.wav
<group> key=60  
	<region> lovel=000 hivel=127 amp_velcurve_127=1 amp_veltrack=30  end=120831 sample=../KorgZ1/Plinky 1-SAMPLES/Plinky-60-127.wav
<group> key=61  
	<region> lovel=000 hivel=127 amp_velcurve_127=1 amp_veltrack=30  end=119295 sample=../KorgZ1/Plinky 1-SAMPLES/Plinky-61-127.wav
<group> key=62  
	<region> lovel=000 hivel=127 amp_velcurve_127=1 amp_veltrack=30  end=121343 sample=../KorgZ1/Plinky 1-SAMPLES/Plinky-62-127.wav
<group> key=63  
	<region> lovel=000 hivel=127 amp_velcurve_127=1 amp_veltrack=30  end=121343 sample=../KorgZ1/Plinky 1-SAMPLES/Plinky-63-127.wav
<group> key=64  
	<region> lovel=000 hivel=127 amp_velcurve_127=1 amp_veltrack=30  end=120319 sample=../KorgZ1/Plinky 1-SAMPLES/Plinky-64-127.wav
<group> key=65  
	<region> lovel=000 hivel=127 amp_velcurve_127=1 amp_veltrack=30  end=122367 sample=../KorgZ1/Plinky 1-SAMPLES/Plinky-65-127.wav
<group> key=66  
	<region> lovel=000 hivel=127 amp_velcurve_127=1 amp_veltrack=30  end=122367 sample=../KorgZ1/Plinky 1-SAMPLES/Plinky-66-127.wav
<group> key=67  
	<region> lovel=000 hivel=127 amp_velcurve_127=1 amp_veltrack=30  end=122367 sample=../KorgZ1/Plinky 1-SAMPLES/Plinky-67-127.wav
<group> key=68  
	<region> lovel=000 hivel=127 amp_velcurve_127=1 amp_veltrack=30  end=120319 sample=../KorgZ1/Plinky 1-SAMPLES/Plinky-68-127.wav
<group> key=69  
	<region> lovel=000 hivel=127 amp_velcurve_127=1 amp_veltrack=30  end=122367 sample=../KorgZ1/Plinky 1-SAMPLES/Plinky-69-127.wav
<group> key=70  
	<region> lovel=000 hivel=127 amp_velcurve_127=1 amp_veltrack=30  end=119295 sample=../KorgZ1/Plinky 1-SAMPLES/Plinky-70-127.wav
<group> key=71  
	<region> lovel=000 hivel=127 amp_velcurve_127=1 amp_veltrack=30  end=120319 sample=../KorgZ1/Plinky 1-SAMPLES/Plinky-71-127.wav
<group> key=72  
	<region> lovel=000 hivel=127 amp_velcurve_127=1 amp_veltrack=30  end=121855 sample=../KorgZ1/Plinky 1-SAMPLES/Plinky-72-127.wav
<group> key=73  
	<region> lovel=000 hivel=127 amp_velcurve_127=1 amp_veltrack=30  end=119295 sample=../KorgZ1/Plinky 1-SAMPLES/Plinky-73-127.wav
<group> key=74  
	<region> lovel=000 hivel=127 amp_velcurve_127=1 amp_veltrack=30  end=122879 sample=../KorgZ1/Plinky 1-SAMPLES/Plinky-74-127.wav
<group> key=75  
	<region> lovel=000 hivel=127 amp_velcurve_127=1 amp_veltrack=30  end=123391 sample=../KorgZ1/Plinky 1-SAMPLES/Plinky-75-127.wav
<group> key=76  
	<region> lovel=000 hivel=127 amp_velcurve_127=1 amp_veltrack=30  end=121343 sample=../KorgZ1/Plinky 1-SAMPLES/Plinky-76-127.wav
<group> key=77  
	<region> lovel=000 hivel=127 amp_velcurve_127=1 amp_veltrack=30  end=122879 sample=../KorgZ1/Plinky 1-SAMPLES/Plinky-77-127.wav
<group> key=78  
	<region> lovel=000 hivel=127 amp_velcurve_127=1 amp_veltrack=30  end=125439 sample=../KorgZ1/Plinky 1-SAMPLES/Plinky-78-127.wav
<group> key=79  
	<region> lovel=000 hivel=127 amp_velcurve_127=1 amp_veltrack=30  end=122879 sample=../KorgZ1/Plinky 1-SAMPLES/Plinky-79-127.wav
<group> key=80  
	<region> lovel=000 hivel=127 amp_velcurve_127=1 amp_veltrack=30  end=124927 sample=../KorgZ1/Plinky 1-SAMPLES/Plinky-80-127.wav
<group> key=81  
	<region> lovel=000 hivel=127 amp_velcurve_127=1 amp_veltrack=30  end=122879 sample=../KorgZ1/Plinky 1-SAMPLES/Plinky-81-127.wav
<group> key=82  
	<region> lovel=000 hivel=127 amp_velcurve_127=1 amp_veltrack=30  end=123903 sample=../KorgZ1/Plinky 1-SAMPLES/Plinky-82-127.wav
<group> key=83  
	<region> lovel=000 hivel=127 amp_velcurve_127=1 amp_veltrack=30  end=124927 sample=../KorgZ1/Plinky 1-SAMPLES/Plinky-83-127.wav
<group> key=84  
	<region> lovel=000 hivel=127 amp_velcurve_127=1 amp_veltrack=30  end=124927 sample=../KorgZ1/Plinky 1-SAMPLES/Plinky-84-127.wav
<group> key=85  
	<region> lovel=000 hivel=127 amp_velcurve_127=1 amp_veltrack=30  end=124927 sample=../KorgZ1/Plinky 1-SAMPLES/Plinky-85-127.wav
<group> key=86  
	<region> lovel=000 hivel=127 amp_velcurve_127=1 amp_veltrack=30  end=125951 sample=../KorgZ1/Plinky 1-SAMPLES/Plinky-86-127.wav
<group> key=87  
	<region> lovel=000 hivel=127 amp_velcurve_127=1 amp_veltrack=30  end=125439 sample=../KorgZ1/Plinky 1-SAMPLES/Plinky-87-127.wav
<group> key=88  
	<region> lovel=000 hivel=127 amp_velcurve_127=1 amp_veltrack=30  end=126463 sample=../KorgZ1/Plinky 1-SAMPLES/Plinky-88-127.wav
<group> key=89  
	<region> lovel=000 hivel=127 amp_velcurve_127=1 amp_veltrack=30  end=127487 sample=../KorgZ1/Plinky 1-SAMPLES/Plinky-89-127.wav
<group> key=90  
	<region> lovel=000 hivel=127 amp_velcurve_127=1 amp_veltrack=30  end=127999 sample=../KorgZ1/Plinky 1-SAMPLES/Plinky-90-127.wav
<group> key=91  
	<region> lovel=000 hivel=127 amp_velcurve_127=1 amp_veltrack=30  end=131583 sample=../KorgZ1/Plinky 1-SAMPLES/Plinky-91-127.wav
<group> key=92  
	<region> lovel=000 hivel=127 amp_velcurve_127=1 amp_veltrack=30  end=130559 sample=../KorgZ1/Plinky 1-SAMPLES/Plinky-92-127.wav
<group> key=93  
	<region> lovel=000 hivel=127 amp_velcurve_127=1 amp_veltrack=30  end=131071 sample=../KorgZ1/Plinky 1-SAMPLES/Plinky-93-127.wav
<group> key=94  
	<region> lovel=000 hivel=127 amp_velcurve_127=1 amp_veltrack=30  end=130047 sample=../KorgZ1/Plinky 1-SAMPLES/Plinky-94-127.wav
<group> key=95  
	<region> lovel=000 hivel=127 amp_velcurve_127=1 amp_veltrack=30  end=126463 sample=../KorgZ1/Plinky 1-SAMPLES/Plinky-95-127.wav
<group> key=96  
	<region> lovel=000 hivel=127 amp_velcurve_127=1 amp_veltrack=30  end=124927 sample=../KorgZ1/Plinky 1-SAMPLES/Plinky-96-127.wav
